<svg width="154" height="32" viewBox="0 0 154 32" fill="none" xmlns="http://www.w3.org/2000/svg">
<rect width="32" height="32" rx="8" fill="#4F46E5"/>
<path d="M8.5 8.5C8.5 7.57 9.25 6.75 10.18 6.75C11.11 6.75 11.86 7.57 11.86 8.5V23.5C11.86 24.43 11.11 25.25 10.18 25.25C9.25 25.25 8.5 24.43 8.5 23.5V8.5Z" fill="white"/>
<path d="M14.75 15.15C14.75 14.22 15.5 13.47 16.43 13.47C17.36 13.47 18.11 14.22 18.11 15.15V23.58C18.11 24.51 17.36 25.26 16.43 25.26C15.5 25.26 14.75 24.51 14.75 23.58V15.15Z" fill="white" fill-opacity="0.85"/>
<path d="M21.05 10.95C21.05 10.02 21.8 9.26 22.74 9.26C23.67 9.26 24.42 10.02 24.42 10.95V23.58C24.42 24.51 23.67 25.26 22.74 25.26C21.8 25.26 21.05 24.51 21.05 23.58V10.95Z" fill="white" fill-opacity="0.65"/>
<text x="40" y="22" font-family="system-ui, -apple-system, sans-serif" font-size="16" font-weight="700" fill="#1F2937">TeamDash</text>
</svg>
