<svg xmlns="http://www.w3.org/2000/svg" width="400" height="500" viewBox="0 0 400 500" fill="none">
  <g stroke="#3d8b6b" stroke-width="1" stroke-linecap="round" fill="none">
    <!-- Main stem -->
    <path d="M380 0 C360 60, 340 130, 300 200 C260 270, 200 340, 140 400 C110 430, 80 455, 55 475" stroke-width="1.2"/>

    <!-- Right-side leaflets -->
    <path d="M370 30 C355 25, 350 40, 360 50"/>
    <path d="M365 55 C345 45, 338 65, 350 78"/>
    <path d="M358 85 C332 72, 322 95, 338 110"/>
    <path d="M348 118 C318 102, 305 130, 325 148"/>
    <path d="M335 155 C302 138, 286 168, 310 188"/>
    <path d="M318 195 C282 178, 264 210, 292 232"/>
    <path d="M298 238 C260 222, 240 255, 270 278"/>
    <path d="M275 280 C238 268, 218 298, 248 318"/>
    <path d="M250 318 C216 310, 198 338, 226 355"/>
    <path d="M225 352 C195 348, 180 372, 205 388"/>
    <path d="M198 385 C172 384, 160 405, 182 418"/>
    <path d="M170 415 C148 418, 140 436, 158 446"/>

    <!-- Left-side leaflets -->
    <path d="M375 20 C390 28, 392 48, 378 45"/>
    <path d="M368 48 C386 60, 385 82, 368 76"/>
    <path d="M360 78 C380 94, 376 118, 356 108"/>
    <path d="M350 112 C372 130, 365 156, 342 144"/>
    <path d="M338 148 C362 168, 350 196, 326 182"/>
    <path d="M322 188 C348 210, 332 240, 306 224"/>
    <path d="M302 230 C328 254, 308 282, 282 265"/>
    <path d="M278 272 C304 296, 282 322, 256 306"/>
    <path d="M252 312 C276 334, 254 358, 230 344"/>
    <path d="M228 348 C250 368, 230 390, 208 378"/>
    <path d="M202 380 C222 398, 204 418, 184 408"/>

    <!-- Curling tip -->
    <path d="M55 475 C48 480, 42 478, 45 472"/>
  </g>
</svg>
