<svg xmlns="http://www.w3.org/2000/svg" width="350" height="450" viewBox="0 0 350 450" fill="none">
  <g stroke="#3d8b6b" stroke-width="1" stroke-linecap="round" fill="none">
    <!-- Main vine stem -->
    <path d="M0 450 C20 420, 35 380, 40 340 C45 300, 38 260, 50 220 C62 180, 85 150, 95 110 C105 70, 100 40, 110 10" stroke-width="1.2"/>

    <!-- Secondary tendril -->
    <path d="M40 340 C60 330, 75 310, 70 290 C65 270, 50 260, 55 240"/>

    <!-- Leaf 1 -->
    <path d="M38 360 C15 345, 8 315, 25 300 C42 285, 55 305, 40 340"/>
    <path d="M32 330 C25 322, 28 312, 34 318"/>

    <!-- Leaf 2 -->
    <path d="M48 280 C70 268, 82 245, 72 228 C62 212, 42 218, 46 250"/>
    <path d="M58 255 C64 248, 68 238, 62 240"/>

    <!-- Leaf 3 -->
    <path d="M42 230 C18 222, 5 200, 16 182 C28 164, 48 172, 44 205"/>
    <path d="M30 198 C24 192, 20 184, 26 186"/>

    <!-- Leaf 4 -->
    <path d="M58 185 C78 170, 92 148, 80 132 C68 116, 50 126, 56 158"/>
    <path d="M68 155 C74 148, 78 138, 72 140"/>

    <!-- Leaf 5 -->
    <path d="M88 130 C105 118, 115 98, 106 85 C97 72, 82 80, 90 108"/>

    <!-- Leaf 6 -->
    <path d="M92 82 C72 72, 62 52, 72 38 C82 24, 96 34, 94 62"/>

    <!-- Curling tendrils -->
    <path d="M55 240 C52 232, 58 225, 62 230 C66 235, 58 238, 55 240"/>
    <path d="M110 10 C114 2, 118 -2, 116 5 C114 12, 108 15, 110 10"/>

    <!-- Small buds -->
    <circle cx="70" cy="290" r="2" stroke-width="0.8"/>
    <circle cx="96" cy="110" r="1.5" stroke-width="0.8"/>
  </g>
</svg>
